<?xml version="1.0" encoding="UTF-8" standalone="no"?><!DOCTYPE svg PUBLIC "-//W3C//DTD SVG 1.1//EN" "http://www.w3.org/Graphics/SVG/1.1/DTD/svg11.dtd"><svg width="100%" height="100%" viewBox="0 0 1025 442" version="1.1" xmlns="http://www.w3.org/2000/svg" xmlns:xlink="http://www.w3.org/1999/xlink" xml:space="preserve" xmlns:serif="http://www.serif.com/" style="fill-rule:evenodd;clip-rule:evenodd;stroke-linejoin:round;stroke-miterlimit:2;"><rect id="Tiling-background" serif:id="Tiling background" x="0" y="0" width="1025" height="442" style="fill:none;"/><clipPath id="_clip1"><rect x="0" y="0" width="1025" height="442"/></clipPath><g clip-path="url(#_clip1)"><g id="zen_2HkXBaC5X2.png"><path d="M1052.034,-22.526l0.335,-0.006l0.014,0.818c-0.12,-0.235 -0.242,-0.475 -0.348,-0.813Zm0.838,30.239l0.329,19.758c-0.305,-0.78 -0.673,-1.195 -1.661,-2.472l-1.193,1.325c-9.59,-4.337 -9.664,-5.094 -20.154,-3.708c-17.998,2.378 -6.981,24.661 -5.194,33.19c1.006,4.802 -0.445,20.014 0,24.895c2.087,22.892 16.937,136.949 18.186,177.144c0.219,7.045 2.86,17.192 4.765,36.196c0.214,2.134 3.385,25.481 3.686,27.695c3.339,24.579 3.926,27.485 4.404,29.851c0.136,0.675 0.042,0.59 1.183,8.521c0.254,1.768 -0,3.636 0.572,5.328c0.126,0.372 0.628,0.452 1.039,0.604l1.338,80.396l-1087.541,18.095l-0.007,-0.442l162.765,-2.708c1.456,-2.964 1.451,-2.872 3.758,-5.325c1.383,-1.471 0.898,-2.062 -19.488,-55.877c-0.214,-0.566 -2.456,-6.483 -3.33,-6.796c-2.254,-0.807 -2.153,0.178 -7.504,2.147c-6.211,2.285 -6.014,2.513 -12.078,5.366c-1.452,-1.158 -1.808,-1.72 -2.919,-0.201c-2.443,1.473 -2.405,1.425 -5.211,2.496c-13.729,5.243 -27.757,14.137 -36.853,-4.832c-3.83,-7.987 -51.659,-167.207 -56.037,-181.782c-7.736,-25.753 -9.401,-26.436 -6.185,-30.693l1.595,2.824c2.101,3.435 2.134,3.498 39.651,127.541c23.507,77.721 22.481,78.35 26.946,83.795c7.161,8.733 11.49,6.035 26.283,0.295c0.567,-0.22 6.407,-2.486 6.549,-3.862c0.351,-3.396 -43.121,-111.248 -46.999,-120.871c-2.27,-5.631 -0.664,-5.959 -2.627,-11.6c-0.954,-2.742 -7.683,-19.817 -9.282,-24.651c-0.457,-1.381 -0.531,-3.293 -0.309,-4.352c0.177,-0.845 0.116,-1.277 1.64,-2.005c16.507,-7.884 20.699,-7.565 19.555,-10.998c-2.92,-8.764 -17.992,-45.391 -22.231,-45.732c-2.703,-0.218 -20.292,10.016 -19.291,3.728c0.52,-3.271 18.06,-6.058 16.832,-9.798c-0.836,-2.545 -2.688,-1.746 -13.283,-30.745c-2.443,-6.687 -1.288,-7.24 -5.853,-12.767c-1.434,-10.108 -4.268,-15.44 -4.306,-15.945c-0.06,-0.782 -1.974,-6.807 -2.161,-7.394c-4.449,-14 -2.898,-14.276 -6.071,-28.683c-0.352,-1.599 -28.303,-77.096 -28.923,-78.597l0.076,-0.547l9.95,-0.166l0.092,0.545l0.149,1.065c2.563,7.289 5.162,2.896 12.431,0.183l1.061,-0.377l1.067,-0.061l1.067,-0.014l1.067,-0.009l6.403,-0.107l1.081,0.821c-19.866,7.266 -20.39,7.253 -20.563,9.041c-0.078,0.804 0.081,0.776 16.113,44.639c2.32,6.349 4.612,3.599 7.341,2.574c2.979,-1.118 35.877,-13.471 37.112,-14.296c1.635,-1.092 1.157,-1.909 -13.052,-39.053c-0.168,-0.439 -1.503,-3.928 -2.168,-5.771l4.452,-0.074c4.879,10.148 14.546,41.699 17.269,42.13c1.566,0.248 42.046,-15.646 42.448,-15.943c1.943,-1.435 -4.043,-15.038 -7.79,-24.371l-0.376,-1.061l-0.207,-1.064l-0.23,-0.542l5.171,-0.086c1.042,5.358 1.559,5.325 2.627,8.155c4.054,10.743 5.214,17.014 8.38,16.151c2.066,-0.563 35.082,-13.482 35.286,-13.587c2.782,-1.433 2.849,-2.043 1.932,-4.246l1.528,-6.755l-0.328,-0.541l5.209,-0.087l0.225,0.542l0.221,1.064c1.413,4.42 1.933,6.645 6.215,5.041c9.237,-3.459 8.259,-4.34 14.322,-5.393l1.067,-0.008l6.403,-0.107l1.083,0.96c-15.693,5.597 -48.81,18.539 -53.039,20.192c-18.148,7.093 -20.618,7.098 -19.827,9.856c0.393,1.37 16.651,44.351 16.726,44.545c1.66,4.307 6.602,1.12 13.473,-1.52c80.437,-30.91 83.996,-29.825 82.512,-34.043c-5.044,-14.334 -1.961,-14.833 -12.363,-26.725c-6.422,-7.342 -5.315,-13.774 -7.056,-15.554l0.463,-1.066l0.2,-0.55l3.938,-0.066c0.891,2.266 2.338,10.079 2.564,10.212c5.32,3.147 18.151,27.252 17.799,33.774c-0.096,1.781 60.485,-21.875 79.793,-24.587c17.753,-2.493 118.977,-2.542 118.977,-2.542l0.875,-10.665c0,0 2.996,-0.33 3.573,-0.329c0.44,0 0.385,10.995 0.385,10.995c0,0 28.23,0.002 32.669,-0.165c5.241,-0.197 3.841,-3.997 3.483,-16.642l0.168,-0.549l3.961,-0.066l0.255,0.542l0.018,1.067c0.238,9.847 -0.459,15.541 2.8,15.606c2.239,0.044 102.251,-0.427 102.745,-0.644c1.46,-0.641 1.901,-1.789 0.9,-19.336l4.547,-0.076l0.18,0.543c-0.106,17.631 0.488,18.849 2.008,18.92c2.804,0.131 47.852,0.513 47.908,0.506c3.466,-0.481 3.196,-11.941 2.854,-20.839l7.538,-0.125c0.791,16.315 -2.008,20.467 1.324,20.937c1.037,0.146 83.616,1.523 89.459,1.402c3.589,-0.074 2.665,-2.6 1.972,-22.839l-0.079,-1.066l-0.077,-0.545l4.242,-0.071c0.414,7.293 0.471,7.526 0.796,15.49c0.03,0.74 0.344,8.426 1.828,9.077c1.114,0.489 72.351,0.073 77.037,0.096c85.51,0.414 86.251,1.093 86.814,-0.41c0.515,-1.376 0.252,-24.314 -0.026,-26.839l0.092,-0.548l4.726,-0.079l0.147,0.544c-0.239,2.481 -0.342,26.085 -0.109,26.748c0.801,2.285 32.577,0.701 35.228,-6.005c1.062,-2.688 2.443,-7.777 0.833,-21.888l6.652,-0.111l0.191,0.543l0.217,1.064c4.597,20.314 -0.483,24.155 5.053,24.323c0.699,0.021 8.42,0.255 8.689,-0.998c0.711,-3.311 -5.804,-15.61 -6.942,-25.052l24.736,-0.412l0.149,0.544l0.25,1.063c6.426,18.751 7.152,25.161 10.481,25.247c18.692,0.483 19.025,0.881 19.965,-0.41c2.486,-3.415 -8.854,-22.026 -11.45,-26.767l7.563,-0.126l0.313,0.541l0.617,1.057c6.768,10.721 14.629,29.353 18.213,23.758c-0.658,-12.76 4.038,-33.564 3.672,1.86c18.422,3.052 18.306,2.673 19.916,2.398c0.493,0.121 1.764,0.434 6.334,-0.335l1.067,-0.027l0.555,0.158Zm-32.149,390.209c-0.472,-11.259 0.456,-31.554 0.057,-42.807c-0.459,-12.933 -0.015,-14.695 -1.659,-27.459c-0.646,-12.962 -10.885,-91.578 -11.924,-95.938c-2.574,-10.803 -30.462,-127.843 -32.328,-135.004c-2.327,-8.93 -40.692,-46.645 -43.641,-48.236c-27.691,-14.941 -27.727,-15.74 -30.275,-14.852c-0.967,0.337 -2.874,11.434 -2.807,14.164l-0.514,2.123c-2.56,5.979 -3.897,15.864 -4.088,17.271c-1.421,10.501 0.779,78.876 1.346,79.742c1.107,1.692 1.559,1.165 25.254,1.111c3.04,-0.007 9.628,-5.001 9.163,-0.428c-0.891,8.77 -33.462,1.848 -34.495,6.023c-0.254,1.024 0.606,37.444 0.721,38.304c0.228,1.693 1.155,1.733 46.732,2.04c3.356,0.023 9.552,-5.345 9.488,-0.788c-0.098,6.98 -15.297,4.774 -68.147,4.757c-53.718,-0.018 -55.426,-1.453 -55.834,1.514c-1.411,10.238 -6.55,22.968 -5.022,33.174c2.026,13.54 9.49,9.64 41.305,10.558c39.039,1.127 38.973,0.541 77.988,1.202c5.723,0.097 3.445,3.716 2.079,4.109c-3.11,0.893 -3.185,0.346 -40.447,-0.366c-74.274,-1.419 -75.253,0.352 -79.877,-3.98c-14.229,-13.332 2.178,-41.332 -0.756,-47.904c-0.771,-1.727 -47.434,-22.437 -48.637,-22.084c-3.075,0.902 1.816,41.34 0.25,44.208c-0.222,0.407 -3.778,3.999 -4.176,-4.011c-1.965,-39.616 -0.48,-41.173 -3.576,-41.864c-1.147,-0.256 -43.359,2.102 -43.767,2.219c-2.287,0.656 -1.738,1.706 -0.157,29.739c5.459,96.833 2.37,119.229 5.098,121.199c1.533,1.107 48.782,-1.281 53.02,-1.495c2.74,-0.138 11.361,-5.237 11.53,-1.274c0.279,6.583 -24.263,6.26 -44.535,6.846c-18.087,0.523 -20.575,-0.324 -20.484,4.906c0.134,7.767 1.619,93.617 3.047,97.052c0.722,1.735 1.298,1.333 23.441,1.447c106.633,0.551 267.978,3.991 267.655,2.027c-1.026,-6.235 -0.3,-19.906 -1.026,-37.244Zm-409.961,-351.701c-0.164,6.984 -0.047,6.891 0.301,13.858c0.284,12.592 -0.53,50.615 8.057,106.704c0.225,1.472 0.589,2.725 18.493,2.16c3.481,-0.11 1.657,-2.617 -3.677,-152.94c-3.143,-1.069 -3.108,-0.694 -6.375,-0.737c-12.875,-0.168 -12.786,-0.344 -13.889,-0.21c-5.27,0.639 -3.158,25.835 -2.91,31.164Zm-584.611,76.991c5.146,15.265 14.847,41.433 15.805,42.317c1.023,0.944 1.436,0.696 35.872,-12.568c0.586,-0.226 6.634,-2.555 6.735,-4.031c0.029,-0.424 -16.337,-46.369 -18.308,-47.299c-0.841,-0.397 -40.779,14.411 -41.305,16.196c-0.492,1.669 0.029,1.63 1.201,5.384Zm175.451,240.478c-0.054,-0.159 0.01,-3.106 -2.756,-2.112c-25.277,9.082 -26.083,10.021 -25.35,12.147c1.416,4.11 18.69,49.71 20.326,54.029c1.58,4.17 2.821,2.984 7.174,1.863c5.557,-1.431 2.537,-4.18 0.607,-65.927Zm256.09,92.328c-2.003,-8.366 0.533,-20.015 -2.399,-21.002c-1.72,-0.579 -32.941,-0.368 -33.189,-0.312c-3.402,0.768 -0.881,19.584 -0.699,21.917l36.286,-0.604Zm-131.713,-203.303c-0.578,-21.484 -0.512,-25.176 -2.291,-25.712c-3.029,-0.913 -3.107,-0.448 -39.534,-0.614c-0.336,-0.002 -3.521,-0.016 -3.904,1.544c-0.169,0.688 1.087,41.259 1.526,46.859c0.202,2.579 1.603,2.377 41.638,2.471c4.137,0.01 3.12,-2.265 2.565,-24.548Zm-127.051,22.391c-0.078,-3.075 -0.96,-38.082 -1.008,-38.44c-0.295,-2.207 -1.263,-0.842 -3.212,0.217c-8.154,4.432 -15.294,2.818 -12.422,10.646c10.771,29.355 10.045,30.035 12.381,31.388c3.839,2.224 4.229,-3.356 4.261,-3.812Zm-85.206,109.276c-0.796,-2.125 -7.271,-19.409 -10.001,-26.538c-6.836,-17.853 -6.461,-18.193 -7.772,-19.037c-1.136,-0.731 -19.041,5.58 -19.32,7.68c-0.167,1.259 18.056,47.479 18.226,47.732c1.502,2.231 8.957,-1.378 14.73,-3.592c4.22,-1.619 5.321,-1.882 4.137,-6.245Zm840.623,-361.549c-5.282,0.089 -8.004,-1.325 -7.272,3.878c0.224,1.591 2.496,7.834 4.407,10.575c15.15,21.726 16.783,20.642 28.619,44.235c2.54,5.063 2.113,-1.331 0.549,-5.132c-9.782,-23.773 -7.181,-24.565 -15.05,-49.029c-2.119,-6.587 -4.245,-4.348 -11.252,-4.528Zm-267.812,43.46c0.667,14.245 -0.36,21.201 3.09,21.296c21.74,0.599 22.336,0.54 22.918,-1.201c1.467,-4.391 -0.173,-4.512 -1.873,-57.842c-0.23,-7.223 -0.105,-12.427 -3.048,-12.498c-20.608,-0.502 -20.855,-0.901 -22.108,0.348c-1.189,1.185 -0.172,1.536 1.021,49.898Zm-486.689,252.579c-0.43,-8.812 -0.043,-18.799 -4.204,-18.587c-2.183,0.111 -37.041,13.847 -40.24,15.107c-4.742,1.869 -1.114,6.988 0.728,11.86c14.355,37.96 13.603,39.303 16.11,39.413c1.019,0.045 25.386,-9.199 27.646,-10.345c2.056,-1.044 0.958,-1.842 -0.04,-37.448Zm368.841,135.3c-0.959,-7.78 -0.505,-7.732 -0.866,-15.485c-0.199,-4.278 -6.604,-2.81 -18.654,-2.987c-42.434,-0.622 -85.831,-0.786 -86.494,-0.624c-2.92,0.712 -1.193,18.649 -0.71,20.872l106.723,-1.776Zm425.194,-430.686c-3.075,0.156 -3.077,0.062 -3.321,0.168c-1.562,0.676 -1.037,1.622 22,86.282c10.229,37.59 20.566,104.97 20.928,109.646c0.293,3.775 3.154,-0.873 1.704,-4.176c-0.349,-0.796 -0.914,-2.081 -1.745,-10.72c-0.207,-2.148 -6.62,-100.378 -8.445,-109.282c-4.928,-24.049 -13.204,-56.563 -15.138,-69.704c-0.412,-2.802 -9.156,-2.079 -15.983,-2.214Zm-268.31,428.076c0.066,-2.313 1.33,-13.848 -1.342,-14.241c-0.128,-0.019 -89.959,-1.611 -91.378,-0.378c-1.144,0.993 -0.43,9.327 -0.129,16.164l92.849,-1.545Zm-100.32,1.669c-0.68,-13.855 0.386,-16.735 -4.569,-17.032c-15.571,-0.935 -42.221,-0.449 -45.892,-0.382c-4.006,0.073 -2.208,10.846 -1.834,18.285l52.294,-0.87Zm-482.389,8.026c-1.05,-1.236 -1.084,-2.364 -1.91,-1.223c-0.25,0.345 0.025,0.913 -0.225,1.258l2.134,-0.036Zm3.622,-309.189c11.725,31.371 11.889,32.486 14.238,32.076c11.909,-2.076 12.953,-10.791 47.798,-11.237c62.468,-0.799 64.767,1.233 65.063,-2.593c0.35,-4.513 -0.368,-4.473 -1.976,-56.544c-0.523,-16.923 -7.853,-40.312 -8.921,-43.718c-11.494,-36.674 -11.443,-38.964 -14.769,-37.775c-8.931,3.192 -43.678,16.815 -74.242,27.971c-7.39,2.697 -4.084,5.283 -1.297,12.595c2.126,5.578 25.582,67.12 26.284,69.838c0.713,2.76 -2.489,5.487 -4.532,0.14c-9.116,-23.858 -8.812,-26.619 -13.044,-24.962c-39.191,15.344 -41.617,14.828 -40.573,18.418c0.718,2.468 5.924,15.668 5.972,15.792Zm183.776,229.746c-0.56,-21.512 0.197,-23.834 -4.435,-23.825c-30.011,0.061 -40.046,-1.261 -40.871,0.943c-0.87,2.325 1.842,62.013 2.087,67.403c0.153,3.375 1.882,3.589 42.115,3.12c3.714,-0.043 2.224,-2.295 1.104,-47.641Zm-123.6,-0.081c0.13,3.584 1.565,43.106 1.898,44.788c0.446,2.252 1.562,1.627 33.057,2.2c3.166,0.058 37.666,0.686 39.576,0.104c2.749,-0.838 0.36,-20.592 -1.547,-88.873c-0.128,-4.601 -1.561,-55.917 -2.301,-57.492c-0.45,-0.957 -0.723,-1.049 -31.804,-1.461c-44.305,-0.586 -50.386,0.542 -48.514,5.714c4.6,12.706 6.211,12.301 6.832,24.597c1.733,34.33 2.636,64.787 2.803,70.423Zm69.02,-152.739c-0.853,-3.453 -1.865,-2.74 -5.431,-2.753c-52.986,-0.201 -68.152,-2.835 -68.095,6.115c0.272,42.503 0.25,44.435 3.821,44.465c5.55,0.047 63.532,0.537 69.375,0.02c2.937,-0.26 1.714,-1.954 0.33,-47.847Zm-228.021,-43.22c8.109,20.851 8.823,20.51 24.192,61.629c10.141,27.133 10.149,28.35 12.475,27.862c1.143,-0.24 39.304,-14.654 40.093,-15.169c2.128,-1.389 0.539,-2.874 -15.571,-46.471c-2.485,-6.726 -4.833,-2.998 -11.585,-0.411c-1.899,0.728 -16.2,7.676 -14.774,2.016c0.74,-2.935 22.41,-7.571 22.577,-11.149c0.044,-0.949 -6.376,-17.439 -15.25,-41.368c-2.163,-5.834 -1.516,-9.118 -7.381,-6.881c-34.724,13.245 -35.062,12.645 -37.54,14.71c-2.165,1.803 1.234,10.236 2.765,15.232Zm273.928,-69.631c-1.426,-50.387 -2.573,-50.252 -4.235,-57.522c-5.304,-23.205 -1.823,-23.553 -3.725,-40.541c-0.325,-2.9 -5.492,-1.315 -29.768,2.129c-2.276,0.323 -11.015,1.563 -27.348,8.837c-5.127,2.283 11.391,31.585 17.053,66.522c6.074,37.48 3.816,124.229 7.214,125.971c2.273,1.165 42.592,0.803 42.978,0.641c2.086,-0.877 -0.077,-24.307 -2.168,-106.038Zm568.268,23.637c-1.634,-68.786 -1.499,-68.861 0.592,-79.111c6.264,-30.695 6.049,-30.756 5.534,-40.585c-0.179,-3.408 -8.403,-2.379 -8.948,-2.384c-61.382,-0.634 -61.847,-0.742 -62.595,0.556c-0.532,0.924 3.285,170.218 3.352,171.67c0.199,4.351 7.338,3.265 8.771,3.266c23.907,0.021 52.252,0.85 53.38,-0.035c1.005,-0.789 0.932,-1.107 -0.086,-53.377Zm-558.728,134.19c0.599,1.95 -0.181,3.357 4.024,3.44c50.957,1.003 52.634,-3.07 67.689,7.817c22.302,16.127 22.201,16.531 24.572,16.641c17.134,0.796 17.566,0.371 18.03,-0.996c1.316,-3.876 -2.009,-22.308 5.1,-29.772c2.085,-2.189 5.004,-0.592 3.117,3.006c-4.381,8.355 -3.046,8.73 -3.495,23.534c-0.196,6.451 5.389,4.591 11.39,4.668c42.539,0.544 42.824,1.631 46.046,-0.154c1.48,-0.819 0.125,-1.454 -1.241,-51.371c-0.077,-2.821 0.947,-11.269 -3.175,-11.369c-15.079,-0.364 -15.037,0.145 -35.276,-2.86c-26.713,-3.966 -33.532,-5.023 -36.446,-5.475c-25.279,-3.918 -25.349,-3.432 -97.142,-4.081c-6.721,-0.061 -4.743,3.009 -4.467,9.646c0.528,12.682 -0.036,19.012 2.813,19.142c14.713,0.675 100.149,-3.353 88.468,5.694c-2.555,1.979 -2.97,-1.927 -40.36,-1.586c-40.356,0.368 -49.872,-0.871 -49.896,2.372l0.249,11.704Zm-3.014,42.763c-0.072,-2.649 -0.843,-30.964 -1.262,-33.097c-0.629,-3.203 -2.214,-2.261 -40.737,-2.343c-0.358,-0.001 -3.947,-0.008 -3.969,2.069c-0.06,5.766 2.273,66.363 2.32,67.174c0.188,3.276 1.974,2.934 22.067,2.978c19.352,0.043 22.655,0.645 22.597,-2.641c-0.3,-17.123 -0.592,-17.049 -1.016,-34.14Zm99.684,-162.857c1.142,32.872 0.747,34.656 4.112,34.758c12.291,0.374 12.202,-0.101 153.709,0.097c24.521,0.034 24.926,0.759 26.21,-0.9c2.25,-2.907 -4.118,-49.893 -4.817,-50.702c-1.505,-1.74 -2.069,-0.651 -70.305,-1.073c-8.619,-0.053 -104.784,-0.648 -107.736,0.097c-2.235,0.564 -1.45,7.169 -1.173,17.723Zm592.33,292.785c1.067,-4.658 2.515,-6.87 -2.25,-6.929c-0.66,-0.008 -2.9,-0.035 -2.9,-0.035l-0.06,2.303l-9.16,0l-0.943,-2.421l-22.129,-0.252l-0.593,2.673l-25.332,0l-0.73,-2.974l-9.543,-0.108l-0.563,3.081l-9.626,-0l-0.508,-3.202l-35.337,-0.397l-0.069,3.599l-4.384,-0l0.021,-3.654c0,0 -118.572,-1.103 -162.153,-1.178c-3.703,-0.006 -3.542,1.526 -4.028,14.323l290.287,-4.83Zm-509.433,-428.675c1.891,57.106 2.346,58.662 -1.517,60.12c-8.007,3.023 -129.681,0.025 -132.225,2.196c-2.315,1.976 0.36,48.232 1.86,49.649c2.784,2.632 3.567,1.177 108.712,1.809c41.486,0.249 78.573,-0.025 85.405,-0.076c2.306,-0.017 2.291,0.13 28.826,0.187c7.4,0.016 3.504,-4.115 2.904,-21.508c-2.823,-81.823 -2.563,-83.522 -1.465,-90.695c1.065,-6.958 -2.786,-4.879 -9.793,-4.838c-80.141,0.465 -81.869,-1.154 -82.58,1.995c-0.086,0.38 -0.039,0.782 -0.125,1.161Zm210.256,143.816c0.597,5.695 -1.566,8.598 4.204,8.357c20.317,-0.85 20.233,-1.298 40.542,-2.229c14.756,-0.676 57.372,26.382 57.665,20.919c0.116,-2.171 -1.217,-56.531 -1.404,-57.591c-0.532,-3.016 -2.139,-1.608 -50.486,-2.669c-4.622,-0.101 -12.268,-7.199 -6.576,-7.37c1.31,-0.039 0.784,2.784 16.087,3.071c39.661,0.743 39.918,0.367 40.516,-0.473c0.394,-0.552 0.268,-2.499 -0.337,-33.065c-0.013,-0.672 0.719,-6.275 -2.419,-6.368c-31.621,-0.937 -33.007,2.644 -49.352,-4.122c-32.253,-13.35 -32.253,-13.612 -35.27,-13.473c-15.773,0.727 -17.209,0.917 -17.076,4.344c2.197,56.592 3.286,74.229 3.907,90.669Zm-629.579,163.177c-14.627,-38.643 -34.25,-91.084 -35.622,-94.456c-0.56,-1.376 -1.567,-3.024 -17.893,4.956c-3.761,1.839 -1.143,3.227 7.355,27.382c1.614,4.589 -0.035,4.921 1.73,9.401c2.111,5.356 20.277,51.459 26.556,66.882c1.152,2.83 4.335,1.126 16.079,-3.384c6.294,-2.417 4.162,-4.481 1.794,-10.781Zm632.08,18.267c-0.013,-0.473 0.011,-10.904 -0.902,-11.769c-0.69,-0.654 -6.929,-0.392 -7.532,-0.366c-27.515,1.155 -88.133,2.256 -89.604,4.15c-0.83,1.069 3.003,48.286 3.29,48.919c1.282,2.825 36.167,0.577 38.464,2.269c7.956,5.859 -20.128,2.958 -35.501,3.487c-3.334,0.115 -2.579,4.034 -2.326,7.209c2.643,33.199 2.103,33.975 4.188,34.78c0.188,0.072 87.999,1.064 90.623,0.731c3.368,-0.428 1.02,-4.797 -0.701,-89.41Zm-175.024,-123.059c-0.268,-25.46 0.275,-26.594 -2.164,-27.061c-2.212,-0.424 -48.184,-0.17 -52.373,-0.147c-62.445,0.344 -62.685,-0.484 -63.845,0.587c-1.724,1.592 0.139,28.269 0.311,30.721c0.225,3.227 2.012,1.999 54.698,10.4c3.983,0.635 59.836,0.449 60.771,0.422c3.776,-0.11 2.675,-6.5 2.603,-14.921Zm140.263,-88.808c1.367,29.691 1.866,30.19 -0.147,31.737c-4.114,3.163 -3.599,-3.304 -4.848,-38.052c-1.027,-28.582 0.313,-32.603 -3.617,-32.719c-3.032,-0.089 -36.367,-1.073 -37.909,0.67c-0.657,0.743 1.556,74.094 2.887,75.398c0.334,0.327 0.441,0.197 45.936,1.313c24.265,0.595 25.213,0.563 25.535,-1.457c0.178,-1.113 -1.775,-33.065 -2.453,-58.652c-0.422,-15.944 -0.853,-16.205 -2.019,-16.91c-0.322,-0.195 -23.076,-1 -24.131,0.472c-0.711,0.991 -0.176,1.11 0.766,38.198Zm-355.349,210.88c0.079,3.041 -1,11.179 3.092,11.308c15.795,0.5 109.016,0.683 118.496,0.702c45.282,0.089 45.288,0.16 49.15,-0.579c19.572,-3.743 19.381,-5.008 39.36,-5.075c27.871,-0.093 27.939,0.615 30.052,-0.534c0.936,-0.509 -1.196,-38.684 -2.037,-39.545c-1.661,-1.701 -99.778,-1.263 -126.928,-2.124c-16.874,-0.535 -17.595,1.538 -23.632,-2.829c-29.016,-20.989 -29.387,-21.298 -37.626,-21.469c-4.009,-0.083 -47.028,-0.972 -50.128,-0.326c-3.043,0.635 -1.218,2.295 0.201,60.469Zm242.258,-49.932c2.561,52.165 3.291,55.001 4.484,59.634c3.67,14.25 3.688,14.172 4.962,28.787c0.534,6.123 3.035,4.321 9.179,4.344c24.226,0.093 26.444,1.122 26.542,-1.721c0.356,-10.245 -2.497,-10.122 -6.124,-127.994c-0.333,-10.838 0.418,-15.798 -3.627,-15.819c-52.06,-0.265 -52.133,-1.065 -56.515,0.049c-2.987,0.759 -3.514,16.735 5.789,27.309c6.573,7.471 14.013,14.109 15.31,25.41Zm-159.527,164.384c0.056,-1.759 0.677,-21.189 -1.386,-21.957c-0.888,-0.331 -205.643,-2.543 -210.338,-1.538c-0.606,0.13 -6.754,1.446 -7.081,3.128c-0.174,0.894 7.636,20.963 7.885,22.149c0.122,0.58 -0.513,1.154 -0.392,1.734l211.312,-3.516Zm304.858,-200.96c-0.008,-0.316 0.617,-10.088 -2.02,-10.509c-1.16,-0.185 -21.571,0.484 -23.447,0.546c-58.023,1.902 -57.912,1.971 -62.949,2.121c-7.484,0.223 -10.636,-1.22 -10.36,6.275c1.148,31.082 0.679,31.769 2.297,32.349c2.959,1.061 86.533,-2.581 94.054,-2.909c3.843,-0.167 2.967,-2.202 2.424,-27.874Zm-213.553,-200.345c-0.915,-39.103 -1.1,-39.801 -2.667,-40.177c-1.271,-0.305 -63.109,-0.01 -63.954,0.042c-4.074,0.25 -2.724,8.502 -2.711,11.399c0.21,46.25 -0.7,48.021 2.601,48.433c3.647,0.455 57.974,-0.114 63.015,-0.167c5.462,-0.057 4.01,-5.578 3.716,-19.529Zm211.825,159.811c-2.111,-39.155 -1.568,-40.064 -3.549,-40.614c-1.18,-0.327 -34.401,-0.619 -37.393,-0.645c-57.55,-0.505 -57.824,-0.442 -58.431,0.371c-0.105,0.141 0.766,68.322 2.953,69.25c3.142,1.334 86.432,-2.44 93.943,-2.781c5.044,-0.229 3.186,-2.844 2.478,-25.581Zm-557.997,-23.945c17.288,45.863 17.273,47.508 19.556,46.707c17.447,-6.12 14.91,-10.523 21.082,-13.232c8.26,-3.624 8.429,-3.485 34.162,-3.236c31.945,0.31 39.198,1.722 39.362,-2.125c0.135,-3.157 -0.134,-3.136 -1.469,-39.468c-0.022,-0.597 0.153,-3.167 -2.33,-3.217c-3.226,-0.065 -74.98,0.724 -76.894,1.039c-8.598,1.417 -23.54,7.166 -25.536,7.934c-3.483,1.34 -7.948,1.689 -7.934,5.596Zm39.286,269.026c-0.25,-2.862 -0.327,-2.836 -14.765,-41.853c-1.294,-3.496 -13.634,-36.845 -16.602,-43.532c-1.074,-2.42 -5.738,-0.083 -14.826,3.44c-26.151,10.137 -29.372,9.511 -27.723,14.395c0.141,0.418 23.786,63.129 25.891,68.349l48.025,-0.799Zm128.589,-246.071c0.54,5.647 -1.599,8.343 4.102,8.428c23.705,0.353 28.705,0.254 29.312,-1.655c1.089,-3.429 -3.126,-57.54 -1.196,-59.781c0.897,-1.041 4.609,-2.862 4.893,3.292c1.287,27.848 0.594,56.935 3.395,58.324c5.439,2.696 10.204,-3.263 52.267,2.526c6.608,0.909 4.072,-2.857 3.813,-9.53c-3.009,-77.47 -1.805,-78.563 -4.336,-79.702c-4.758,-2.143 -43.83,4.269 -47.144,-4.79c-1.235,-3.376 -1.205,-3.451 -2.738,-44.849c-0.528,-14.263 5.893,-11.031 20.131,-11.179c40.298,-0.419 41.964,0.527 42.283,-2.698c0.034,-0.341 -0.077,-53.31 -0.428,-55.5c-0.36,-2.249 -1.482,-1.812 -34.311,-1.772c-6.321,0.008 -77.995,0.095 -79.018,0.289c-2.117,0.401 -2.292,1.349 -1.351,26.896c0.442,12.018 5.403,15.273 5.922,35.133c1.786,68.335 2.745,68.185 4.404,136.569Zm-323.863,-141.993c4.526,8.11 5.977,7.226 8.313,13.908c7.201,20.595 6.282,22.307 9.204,22.011c0.384,-0.039 37.848,-14.277 39.377,-15.325c1.614,-1.107 0.885,-1.852 -14.033,-41.367c-1.504,-3.985 -2.232,-8.852 -6.072,-7.441c-39.46,14.5 -41.51,14.271 -40.716,17.734c0.635,2.77 3.575,9.657 3.926,10.48Zm659.596,256.288c30.324,-1.098 33.28,-1.367 35.203,-1.449c21.304,-0.904 21.999,-0.083 22.639,-1.848c0.485,-1.336 -0.938,-35.196 -0.95,-35.312c-0.259,-2.535 -4.064,-2.07 -18.053,-1.412c-23.507,1.106 -23.41,0.638 -46.956,1.535c-32.168,1.225 -32.689,1.226 -33.121,2.534c-0.47,1.42 1.059,34.74 1.191,35.328c0.874,3.912 2.854,1.676 40.047,0.624Zm-329.192,83.089c0.287,9.973 -0.494,17.844 3.149,17.914c13.722,0.266 185.648,1.655 201.792,1.785c6.49,0.052 80.38,0.649 81.126,0.582c0.508,-0.046 2.461,0.002 2.367,-2.652c-0.111,-3.129 -1.313,-37.149 -3.49,-38.985c-1.08,-0.91 -77.863,-1.601 -81.694,-0.779c-7.502,1.61 -9.594,4.307 -24.693,0.191c-4.42,-1.205 -3.077,-5.116 1.01,-4.255c10.698,2.255 10.774,2.67 21.341,0.189c11.344,-2.665 42.763,0.908 43.891,-1.488c0.914,-1.94 -1.061,-31.028 -6.996,-31.135c-39.379,-0.707 -46.17,0.632 -50.105,1.407c-32.144,6.335 -32.3,4.618 -65.118,4.25c-17.873,-0.2 -122.21,-0.71 -122.807,-0.545c-2.718,0.754 -1.206,2.087 -0.182,37.514c0.018,0.612 0.202,7 0.831,7.606c2.015,1.942 48.221,-1.218 49.871,1.416c2.513,4.009 -4.304,3.395 -29.366,3.48c-0.924,0.003 -17.058,-0.083 -19.237,0.067c-2.31,0.159 -1.449,1.156 -1.69,3.437Zm380.225,-365.018c0.436,11.068 -0.621,17.053 4.317,16.736c13.231,-0.85 13.583,-2.403 25.836,2.687c1.698,0.705 10.738,4.461 21.285,8.672c10.87,4.34 10.794,5.081 22.55,5.16c28.196,0.19 31.073,1.142 31.038,-2.972c-0.04,-4.689 -0.486,-57.013 -1.354,-58.601c-1.213,-2.22 -2.083,-1.089 -80.904,-2.151c-22.508,-0.303 -24.107,-0.412 -24,2.725c0.867,25.581 1.158,25.523 1.232,27.743Zm-580.3,76.759c0.608,1.462 1.36,6.772 4.995,5.438c3.302,-1.212 39.634,-14.547 40.943,-16.018c1.834,-2.06 -17.058,-47.693 -17.109,-47.743c-1.134,-1.115 -1.575,-0.661 -34.265,11.75c-0.312,0.118 -10.101,2.986 -9.826,5.357c0.22,1.896 5.142,13.842 15.262,41.216Zm-24.132,-51.635c-1.3,-3.491 -13.265,-35.617 -16.392,-43.591c-2.147,-5.476 -3.966,-2.848 -9.479,-0.712c-25.66,9.939 -34.4,12.78 -35.455,13.921c-1.75,1.892 17.335,48.415 17.66,48.634c0.887,0.599 9.363,-2.62 10.153,-2.92c32.241,-12.242 33.565,-12.051 33.513,-15.333Zm400.102,200.322c0.879,29.239 0.832,30.482 3.42,30.768c0.247,0.027 54.375,0.843 55.56,0.392c2.354,-0.895 1.336,-16.759 -5.205,-24.157c-14.633,-16.552 -16.532,-16.656 -16.836,-36.435c-0.058,-3.775 -2.012,-3.066 -22.836,-3.167c-10.321,-0.05 -14.624,-0.555 -15.069,1.625c-0.496,2.429 0.249,2.439 0.966,30.973Zm-354.115,-78.363c-2.325,-4.406 -6.439,-1.058 -9.377,0.1c-19.593,7.725 -34.934,12.786 -35.846,14.534c-0.498,0.955 16.765,48.715 18.679,49.017c1.624,0.256 41.195,-15.096 42.522,-15.928c1.979,-1.241 1.099,-2.155 -15.978,-47.722Zm-12.009,117.658c-17.33,-46.165 -17.395,-47.589 -19.726,-46.902c-0.557,0.164 -37.406,14.03 -39.171,14.787c-2.819,1.209 -1.19,4.158 4.842,19.997c11.37,29.858 11.079,30.774 13.036,30.708c2.428,-0.083 36.047,-13.438 39.156,-14.673c3.124,-1.241 2.098,-2.503 1.863,-3.917Zm-22.873,70.662c0.298,0.605 0.52,3.455 4.118,2.154c3.139,-1.135 37.256,-13.467 38.981,-14.889c0.827,-0.682 1.191,-1.214 -15.147,-44.342c-0.199,-0.527 -2.299,-6.069 -3.571,-6.064c-0.775,0.003 -40.238,14.728 -41.076,15.726c-0.854,1.018 -0.698,1.413 16.695,47.414Zm26.683,-73.085c3.068,5.439 4.595,2.449 10.444,0.226c34.131,-12.969 36.002,-12.788 35.146,-15.898c-0.219,-0.795 -9.721,-25.843 -15.912,-42.359c-1.452,-3.873 -0.443,-6.455 -4.31,-5.049c-3.319,1.207 -38.321,13.939 -41.218,15.793c-1.864,1.192 -1.094,2.072 15.85,47.286Zm490.034,-293.255c-0.426,1.165 -0.409,1.183 0.51,25.803c1.543,41.302 0.592,41.433 1.801,44.811c0.911,2.544 39.98,1.073 40.156,0.948c1.406,-0.995 -1.378,-70.07 -2.055,-70.773c-0.442,-0.459 -14.894,-1.524 -40.414,-0.788Zm396.896,430.738c0.108,-6.514 0.59,-12.073 -0.338,-32.558c-0.504,-11.138 -1.824,-40.297 -15.147,-138.544c-6.146,-45.323 -8.994,-53.766 -13.361,-75.523c-10.88,-54.202 -12.326,-53.775 -22.955,-94.592c-3.522,-13.527 -4.093,-13.301 -10.954,-25.458c-1.529,-2.709 -25.697,-36.687 -28.471,-40.034c-8.217,-9.914 -5.559,-14.252 -18.242,-16.122c-11.59,-1.71 -11.476,-1.863 -22.682,-5.308c-0.68,-0.209 -5.629,-1.731 -3.227,8.28c0.943,3.93 28.896,13.309 38.723,23.113c37.521,37.437 35.61,39.267 36.482,40.518c1.981,2.843 2.897,4.157 11.805,41.668c22.208,93.523 22.814,93.343 27.522,127.522c13.36,96.984 12.868,111.829 13.27,161.013c0.144,17.692 -3.074,20.569 -3.547,24.467c-0.072,0.594 0.523,1.143 0.451,1.736l10.672,-0.178Zm-903.196,-317.471c-1.145,-3.061 -11.716,-31.325 -14.362,-38.238c-2.121,-5.544 -0.846,-9.231 -6.456,-7.085c-39.616,15.151 -41.13,15.048 -40.508,17.509c0.987,3.905 14.535,39.017 15.838,42.394c2.853,7.393 5.397,3.74 12.762,0.843c30.828,-12.125 32.831,-11.323 32.725,-15.423Zm16.53,43.57c-13.484,-35.242 -13.231,-35.475 -14.165,-36.147c-1.347,-0.968 -43.286,15.535 -43.666,16.616c-0.775,2.202 -0.153,2.226 9.494,27.591c8.011,21.065 7.999,23.295 10.746,22.355c1.421,-0.487 39.984,-15.33 40.355,-15.49c3.329,-1.436 0.06,-7.31 -2.764,-14.924Zm403.312,23.076c0.07,15.516 0.12,15.435 0.066,30.945c-0.02,5.72 -2.145,8.454 3.654,8.557c4.507,0.08 54.568,0.966 56.339,-0.339c1.646,-1.213 0.754,-1.738 0.058,-29.496c-0.175,-6.961 1.524,-12.291 -4.783,-12.16c-12.425,0.259 -53.374,-0.588 -54.462,0.305c-0.146,0.12 -0.065,0.162 -0.873,2.188Z"/></g><path d="M-3.559,151.126l0.283,-0.034c0.968,5.256 1.483,8.053 13.746,65.374c4.747,22.189 4.822,22.169 7.891,37.111c11.28,54.92 12.794,61.906 13.959,67.278c0.383,1.765 0.285,1.78 1.926,13.254c0.475,3.325 0.42,3.331 2.089,16.223c0.01,0.076 2.36,19.691 3.426,30.608c3.505,35.891 0.755,52.315 -21.379,55.339c-0.596,0.081 -4.316,1.38 -15.06,2.557c-5.303,0.581 -6.392,0.494 -6.418,0.494c-0.97,0.02 -1.016,-0.001 -1.715,-0.673c-0.012,-0.012 -0.746,-1.688 -0.742,-1.697c0.222,-0.569 0.25,-1.265 0.673,-1.705c0.901,-0.938 1.048,-0.727 2.348,-0.756c2.966,-0.065 11.181,0.548 19.794,-1.062c0.021,-0.004 5.487,-1.621 9.141,-4.996c9.174,-8.475 3.862,-24.57 -10.601,-65.669c-0.162,-0.461 -1.356,-3.562 -7.033,-20.722c-0.805,-2.435 -4.312,-14.048 -4.33,-14.114c-0.18,-0.68 -3.174,-14.717 -8.599,-41.275c-8.037,-39.341 -7.965,-39.354 -9.362,-46.663c-0.027,-0.143 -9.889,-51.442 -14.501,-78.089c-0.117,-0.678 -1.376,-7.949 -1.304,-8.503c0.222,-1.71 0.121,-3.494 0.669,-5.128c0.25,-0.747 1.693,-5.053 6.454,-7.447c4.909,-2.468 9.328,-0.98 10.095,-0.721c3.239,1.091 4.091,2.19 4.336,2.507c2.982,3.845 1.557,4.871 4.214,8.508Zm0.241,0.322c0.027,0.035 0.054,0.07 0.081,0.105l-0.009,-0.111l-0.072,0.006Z"/></g></svg>
