<?xml version="1.0" encoding="UTF-8" standalone="no"?><!DOCTYPE svg PUBLIC "-//W3C//DTD SVG 1.1//EN" "http://www.w3.org/Graphics/SVG/1.1/DTD/svg11.dtd"><svg width="100%" height="100%" viewBox="0 0 128 128" version="1.1" xmlns="http://www.w3.org/2000/svg" xmlns:xlink="http://www.w3.org/1999/xlink" xml:space="preserve" xmlns:serif="http://www.serif.com/" style="fill-rule:evenodd;clip-rule:evenodd;stroke-linejoin:round;stroke-miterlimit:2;"><rect id="Favicon" x="0" y="0" width="128" height="128" style="fill:none;"/><path d="M48.422,85.397c5.456,-7.783 19.642,-31.067 31.308,-50.12c9.443,-15.423 17.371,-28.171 18.111,-28.911c1.777,-1.777 4.661,-1.777 6.438,-0c1.692,1.692 1.773,4.39 0.241,6.177c-0.032,0.045 -0.084,0.118 -0.124,0.177c-1.82,2.648 -8.729,13.963 -16.901,27.311c-13.953,22.79 -31.581,51.313 -34.512,54.243l-1.052,0.831l-1.274,0.577l-1.317,0.24l-1.194,-0.047c-1.195,-0.167 -2.752,-0.821 -4.388,-2.208c-3.326,-2.82 -8.265,-9.855 -12.783,-15.646c-2.35,-3.012 -4.412,-5.731 -6.07,-6.561c-2.247,-1.124 -3.159,-3.86 -2.036,-6.107c1.124,-2.247 3.86,-3.159 6.107,-2.036c1.503,0.751 3.364,2.304 5.318,4.455c3.519,3.874 7.73,9.905 11.37,14.497c0.865,1.091 1.909,2.235 2.76,3.127Z" style="fill:#ebab3d;"/><path d="M18.214,30.822l-14.019,0l-0,64.102l39.99,0l0,-13.038l-25.971,0l0,-51.064Z" style="fill:#fff;fill-rule:nonzero;"/><path d="M51.913,94.923l14.019,0l0,-49.163l0.18,0l16.086,49.163l10.694,0l16.715,-49.163l0.18,0l0,49.163l14.019,0l0,-64.102l-21.118,0l-14.738,41.829l-0.18,0l-14.648,-41.829l-21.208,0l0,64.102Z" style="fill:#fff;fill-rule:nonzero;"/></svg>