<?xml version="1.0" encoding="UTF-8" standalone="no"?><!DOCTYPE svg PUBLIC "-//W3C//DTD SVG 1.1//EN" "http://www.w3.org/Graphics/SVG/1.1/DTD/svg11.dtd"><svg width="100%" height="100%" viewBox="0 0 910 339" version="1.1" xmlns="http://www.w3.org/2000/svg" xmlns:xlink="http://www.w3.org/1999/xlink" xml:space="preserve" xmlns:serif="http://www.serif.com/" style="fill-rule:evenodd;clip-rule:evenodd;stroke-linejoin:round;stroke-miterlimit:2;"><rect id="Artboard2" x="0" y="0" width="909.638" height="338.505" style="fill:none;"/><g><path d="M0.786,232.386l28.42,0l0,-98.922l0.364,0l32.61,98.922l21.679,0l33.885,-98.922l0.364,0l0,98.922l28.42,0l0,-128.982l-42.812,0l-29.877,84.166l-0.364,0l-29.695,-84.166l-42.994,0l-0,128.982Z" style="fill:currentColor;fill-rule:nonzero;"/><path d="M190.797,232.386l10.748,-27.327l50.099,0l11.113,27.327l32.063,0l-56.111,-128.982l-23.501,0l-55.746,128.982l31.334,0Zm35.342,-91.453l15.849,40.079l-31.517,0l15.667,-40.079Z" style="fill:currentColor;fill-rule:nonzero;"/><path d="M336.174,232.386l0,-91.817l0.364,0l56.293,91.817l37.164,0l0,-128.982l-28.42,0l0,89.631l-0.364,0l-54.835,-89.631l-38.622,0l0,128.982l28.42,0Z" style="fill:currentColor;fill-rule:nonzero;"/><path d="M518.898,100.125c-40.626,0 -69.592,26.598 -69.592,67.77c0,41.172 28.966,67.77 69.592,67.77c40.443,0 69.592,-26.78 69.592,-67.77c0,-40.99 -28.602,-67.77 -69.592,-67.77Zm-40.079,67.77c0,-24.412 16.032,-41.536 39.897,-41.536c24.23,0 40.261,17.307 40.261,41.536c0,24.23 -16.032,41.536 -40.079,41.536c-24.23,0 -40.079,-17.307 -40.079,-41.536Z" style="fill:currentColor;fill-rule:nonzero;"/><path d="M670.47,100.125c-40.626,0 -69.592,26.962 -69.592,67.77c0,41.172 29.148,67.77 69.592,67.77c17.671,0 36.435,-7.469 46.637,-22.408l-23.683,-17.671c-6.194,9.291 -15.485,13.845 -26.598,13.845c-22.59,0 -36.435,-20.04 -36.435,-41.536c0,-25.323 17.125,-41.536 37.346,-41.536c9.655,0 18.218,3.097 24.412,10.566l21.861,-17.853c-9.655,-12.388 -26.598,-18.946 -43.54,-18.946Z" style="fill:currentColor;fill-rule:nonzero;"/><path d="M733.685,232.386l28.42,0l0,-61.212l52.467,61.212l39.715,0l-62.305,-69.045l57.386,-59.936l-37.164,0l-50.099,53.56l0,-53.56l-28.42,0l0,128.982Z" style="fill:currentColor;fill-rule:nonzero;"/><path d="M0.34,309.53l6.948,0l0,-12.292l13.138,0l0,-6.413l-13.138,0l0,-6.413l14.207,0l0,-6.413l-21.155,0l0,31.532Z" style="fill:currentColor;fill-rule:nonzero;"/><path d="M41.804,277.196c-9.932,0 -17.013,6.502 -17.013,16.568c0,10.065 7.081,16.568 17.013,16.568c9.887,0 17.013,-6.547 17.013,-16.568c0,-10.021 -6.992,-16.568 -17.013,-16.568Zm-9.798,16.568c0,-5.968 3.919,-10.154 9.754,-10.154c5.923,0 9.843,4.231 9.843,10.154c0,5.923 -3.919,10.154 -9.798,10.154c-5.923,0 -9.798,-4.231 -9.798,-10.154Z" style="fill:currentColor;fill-rule:nonzero;"/><path d="M70.486,309.53l0,-12.604l3.429,0l6.591,12.604l8.328,0l-8.017,-13.317c4.276,-0.802 6.814,-4.008 6.814,-8.64c0,-7.66 -5.968,-9.575 -11.669,-9.575l-12.426,0l0,31.532l6.948,0Zm0,-18.483l0,-7.17l4.721,0c3.296,0 5.211,1.069 5.211,3.652c0,2.984 -2.405,3.518 -5.612,3.518l-4.32,0Z" style="fill:currentColor;fill-rule:nonzero;"/><path d="M18.107,0.891l-17.433,0l0,79.119l49.729,0l-0,-16.092l-32.296,0l-0,-63.027Z" style="fill:currentColor;fill-rule:nonzero;"/><rect x="59.79" y="0.891" width="17.433" height="79.119" style="fill:currentColor;fill-rule:nonzero;"/><path d="M104.154,80.01l6.593,-16.762l30.731,0l6.817,16.762l19.668,0l-34.419,-79.119l-14.416,0l-34.195,79.119l19.221,0Zm21.679,-56.098l9.722,24.585l-19.333,0l9.61,-24.585Z" style="fill:currentColor;fill-rule:nonzero;"/><path d="M139.508,258.42c-21.188,0 -36.295,14.062 -36.295,35.345c0,21.473 15.202,35.345 36.295,35.345c9.216,0 19.002,-3.896 24.323,-11.687l-12.352,-9.216c-3.23,4.846 -8.076,7.221 -13.872,7.221c-11.782,0 -19.002,-10.451 -19.002,-21.663c0,-13.207 8.931,-21.663 19.478,-21.663c5.036,0 9.501,1.615 12.732,5.511l11.401,-9.311c-5.036,-6.461 -13.872,-9.881 -22.708,-9.881Z" style="fill:currentColor;fill-rule:nonzero;"/><path d="M204.591,258.42c-21.188,0 -36.295,13.872 -36.295,35.345c0,21.473 15.107,35.345 36.295,35.345c21.093,0 36.295,-13.967 36.295,-35.345c0,-21.378 -14.917,-35.345 -36.295,-35.345Zm-20.903,35.345c0,-12.732 8.361,-21.663 20.808,-21.663c12.637,0 20.998,9.026 20.998,21.663c0,12.637 -8.361,21.663 -20.903,21.663c-12.637,0 -20.903,-9.026 -20.903,-21.663Z" style="fill:currentColor;fill-rule:nonzero;"/><path d="M250.957,260.13l0,41.615c0,14.632 9.026,27.364 28.409,27.364c19.383,0 28.314,-12.732 28.314,-27.364l0,-41.615l-14.822,0l0,40.95c0,8.741 -6.461,14.347 -13.492,14.347c-7.886,0 -13.587,-6.366 -13.587,-14.347l0,-40.95l-14.822,0Z" style="fill:currentColor;fill-rule:nonzero;"/><path d="M336.183,327.399l0,-47.886l0.19,0l29.359,47.886l19.383,0l0,-67.269l-14.822,0l0,46.746l-0.19,0l-28.599,-46.746l-20.143,0l0,67.269l14.822,0Z" style="fill:currentColor;fill-rule:nonzero;"/><path d="M392.621,273.242l19.193,0l0,54.157l14.822,0l0,-54.157l19.193,0l0,-13.112l-53.207,0l0,13.112Z" style="fill:currentColor;fill-rule:nonzero;"/><path d="M444.593,260.13l25.273,38.575l0,28.694l14.822,0l0,-28.694l25.273,-38.575l-17.577,0l-15.107,25.178l-14.252,-25.178l-18.432,0Z" style="fill:currentColor;fill-rule:nonzero;"/><path d="M543.026,260.13l0,67.269l27.649,0c11.877,0 25.178,-4.656 25.178,-18.717c0,-9.596 -6.841,-15.487 -14.727,-16.437l0,-0.19c6.936,-2.185 11.592,-7.316 11.592,-14.822c0,-14.157 -12.162,-17.102 -24.038,-17.102l-25.653,0Zm14.822,39.43l11.592,0c4.846,0 11.592,1.235 11.592,7.411c0,5.416 -4.751,7.886 -9.596,7.886l-13.587,0l0,-15.297Zm10.356,-26.889c4.561,0 9.691,1.615 9.691,7.031c0,5.131 -4.466,7.316 -9.026,7.316l-11.021,0l0,-14.347l10.356,0Z" style="fill:currentColor;fill-rule:nonzero;"/><path d="M637.278,258.42c-21.188,0 -36.295,13.872 -36.295,35.345c0,21.473 15.107,35.345 36.295,35.345c21.093,0 36.295,-13.967 36.295,-35.345c0,-21.378 -14.917,-35.345 -36.295,-35.345Zm-20.903,35.345c0,-12.732 8.361,-21.663 20.808,-21.663c12.637,0 20.998,9.026 20.998,21.663c0,12.637 -8.361,21.663 -20.903,21.663c-12.637,0 -20.903,-9.026 -20.903,-21.663Z" style="fill:currentColor;fill-rule:nonzero;"/><path d="M693.05,327.399l5.606,-14.252l26.128,0l5.796,14.252l16.722,0l-29.264,-67.269l-12.257,0l-29.074,67.269l16.342,0Zm18.432,-47.696l8.266,20.903l-16.437,0l8.171,-20.903Z" style="fill:currentColor;fill-rule:nonzero;"/><path d="M768.87,327.399l0,-26.889l7.316,0l14.062,26.889l17.767,0l-17.102,-28.409c9.121,-1.71 14.537,-8.551 14.537,-18.432c0,-16.342 -12.732,-20.428 -24.893,-20.428l-26.508,0l0,67.269l14.822,0Zm0,-39.43l0,-15.297l10.071,0c7.031,0 11.116,2.28 11.116,7.791c0,6.366 -5.131,7.506 -11.972,7.506l-9.216,0Z" style="fill:currentColor;fill-rule:nonzero;"/><path d="M815.616,260.13l0,67.269l24.608,0c20.143,0 37.435,-12.162 37.435,-33.539c0,-24.133 -17.957,-33.729 -39.24,-33.729l-22.803,0Zm14.822,53.587l0,-39.905l9.121,0c12.067,0 22.708,6.081 22.708,19.478c0,15.012 -10.451,20.428 -23.658,20.428l-8.171,0Z" style="fill:currentColor;fill-rule:nonzero;"/><path d="M517.446,196.347c10.301,-14.693 37.083,-58.651 59.106,-94.621c17.827,-29.117 32.794,-53.183 34.192,-54.581c3.354,-3.354 8.8,-3.354 12.154,-0c3.195,3.195 3.346,8.287 0.455,11.662c-0.061,0.086 -0.158,0.222 -0.235,0.334c-3.436,4.999 -16.48,26.361 -31.908,51.56c-26.343,43.025 -59.622,96.873 -65.154,102.405c-3.708,3.708 -10.163,5.006 -17.417,-1.143c-6.279,-5.323 -15.603,-18.606 -24.134,-29.538c-4.437,-5.687 -8.329,-10.82 -11.46,-12.386c-4.242,-2.121 -5.965,-7.288 -3.843,-11.53c2.121,-4.242 7.288,-5.965 11.53,-3.843c2.837,1.418 6.351,4.35 10.039,8.41c6.644,7.313 14.593,18.7 21.465,27.368c1.632,2.059 3.604,4.219 5.21,5.904Z" style="fill:#ebab3d;"/></g></svg>
